<svg
    version="1.1"
    xmlns="http://www.w3.org/2000/svg"  

    color-interpolation-filters="sRGB"
    xmlns:xlink="http://www.w3.org/1999/xlink"
    xmlns:svgjs="http://svgjs.com/svgjs"

    viewBox="79 108 183 35"
    width="183"
    height="35"
>
  <g
    width="100%"
    data-v-0dd9719b=""
    fill="#FFFFFF"
    class="iconlinesvg-g iconlinesvg"
    transform="translate(79.59323500632308,108.60932205198333)"
  >
    <g class="tp-name" fill="#FFFFFF">
      <g transform="translate(0, 0)" fill="#FFFFFF">
        <g
          data-gra="path-name"
          fill="#FFFFFF"
          transform="scale(0.9199999999999988)"
        >
          <path
            d="M3.10-31.37L22.47-31.37L22.47-26.29L9.39-26.29L9.39-18.25L19.42-18.25L19.42-13.26L9.39-13.26L9.39 0L3.10 0L3.10-31.37Z"
            transform="translate(-3.101123595505618, 35.235955056179776)"
            fill="#FFFFFF"
          ></path>
        </g>
      </g>
      <g transform="translate(21, 0)" fill="#FFFFFF">
        <g
          data-gra="path-name"
          fill="#FFFFFF"
          transform="scale(0.9199999999999988)"
        >
          <path
            d="M6.29-27.87Q4.63-27.87 3.53-28.92Q2.43-29.98 2.43-31.55L2.43-31.55Q2.43-33.12 3.53-34.18Q4.63-35.24 6.29-35.24L6.29-35.24Q7.96-35.24 9.06-34.18Q10.16-33.12 10.16-31.55L10.16-31.55Q10.16-29.98 9.06-28.92Q7.96-27.87 6.29-27.87L6.29-27.87ZM3.10-24.90L9.39-24.90L9.39 0L3.10 0L3.10-24.90Z"
            transform="translate(-2.426966292134831, 35.235955056179776)"
            fill="#FFFFFF"
          ></path>
        </g>
      </g>
      <g transform="translate(32, 0)" fill="#FFFFFF">
        <g
          data-gra="path-name"
          fill="#FFFFFF"
          transform="scale(0.9199999999999988)"
        >
          <path
            d="M16.90-25.26Q21.35-25.26 24.09-22.45Q26.83-19.64 26.83-14.61L26.83-14.61L26.83 0L20.54 0L20.54-13.75Q20.54-16.72 19.06-18.31Q17.57-19.91 15.01-19.91L15.01-19.91Q12.40-19.91 10.90-18.31Q9.39-16.72 9.39-13.75L9.39-13.75L9.39 0L3.10 0L3.10-24.90L9.39-24.90L9.39-21.80Q10.65-23.42 12.61-24.34Q14.56-25.26 16.90-25.26L16.90-25.26Z"
            transform="translate(-3.101123595505618, 35.235955056179776)"
            fill="#FFFFFF"
          ></path>
        </g>
      </g>
      <g transform="translate(57, 0)" fill="#FFFFFF">
        <g
          data-gra="path-name"
          fill="#FFFFFF"
          transform="scale(0.9199999999999988)"
        >
          <path
            d="M1.48-12.54Q1.48-16.31 2.99-19.24Q4.49-22.16 7.08-23.73Q9.66-25.30 12.85-25.30L12.85-25.30Q15.64-25.30 17.73-24.18Q19.82-23.06 21.08-21.35L21.08-21.35L21.08-24.90L27.42-24.90L27.42 0L21.08 0L21.08-3.64Q19.87-1.89 17.73-0.74Q15.60 0.40 12.81 0.40L12.81 0.40Q9.66 0.40 7.08-1.21Q4.49-2.83 2.99-5.78Q1.48-8.72 1.48-12.54L1.48-12.54ZM21.08-12.45Q21.08-14.74 20.18-16.38Q19.28-18.02 17.75-18.90Q16.22-19.78 14.47-19.78L14.47-19.78Q12.72-19.78 11.24-18.92Q9.75-18.07 8.83-16.43Q7.91-14.79 7.91-12.54L7.91-12.54Q7.91-10.29 8.83-8.61Q9.75-6.92 11.26-6.02Q12.76-5.12 14.47-5.12L14.47-5.12Q16.22-5.12 17.75-6Q19.28-6.88 20.18-8.52Q21.08-10.16 21.08-12.45L21.08-12.45Z"
            transform="translate(-1.4831460674157304, 35.235955056179776)"
            fill="#FFFFFF"
          ></path>
        </g>
      </g>
      <g transform="translate(84, 0)" fill="#FFFFFF">
        <g
          data-gra="path-name"
          fill="#FFFFFF"
          transform="scale(0.9199999999999988)"
        >
          <path
            d="M16.90-25.26Q21.35-25.26 24.09-22.45Q26.83-19.64 26.83-14.61L26.83-14.61L26.83 0L20.54 0L20.54-13.75Q20.54-16.72 19.06-18.31Q17.57-19.91 15.01-19.91L15.01-19.91Q12.40-19.91 10.90-18.31Q9.39-16.72 9.39-13.75L9.39-13.75L9.39 0L3.10 0L3.10-24.90L9.39-24.90L9.39-21.80Q10.65-23.42 12.61-24.34Q14.56-25.26 16.90-25.26L16.90-25.26Z"
            transform="translate(-3.101123595505618, 35.235955056179776)"
            fill="#FFFFFF"
          ></path>
        </g>
      </g>
      <g transform="translate(109, 2.9255532948931595)" fill="#FFFFFF">
        <g fill="#FFFFFF">
          <g class="imagesvg" fill="#FFFFFF">
            <g fill="#FFFFFF">
              <rect
                fill="#FFFFFF"
                fill-opacity="0"
                stroke-width="2px"
                x="0"
                y="0"
                width="29.123595505617974"
                height="26.938106893359702"
                class="image-rect"
              ></rect>
              <svg
                filter="url(#colors2477403709)"
                x="0"
                y="0"
                width="29.123595505617974"
                height="26.938106893359702"
                filtersec="colorsf1496635848"
                class="image-svg-svg primary"
                style="overflow: visible"
                fill="#FFFFFF"
              >
                <svg
                  xmlns="http://www.w3.org/2000/svg"
                  viewBox="0.8029953837394714 0.2535648047924042 98.38433074951172 91.00154113769531"
                  fill="#FFFFFF"
                >
                  <g transform="matrix(.69 0 0 .69 15.5 15.5)" fill="#FFFFFF">
                    <path
                      fill="#FFFFFF"
                      d="M119.41 37.97a3.575 3.575 0 0 0-3.82.29A62.895 62.895 0 0 1 77.7 50.88c-35.41 0-64.22-29.37-64.22-65.48 0-1.25.04-2.5.11-3.73a3.56 3.56 0 0 0-3.36-3.76c-.84-.05-1.66.2-2.33.7a73.343 73.343 0 0 0-29.2 58.57c0 40.03 32.01 72.61 71.35 72.61 37.82 0 69.11-30.08 71.23-68.48.08-1.38-.65-2.68-1.87-3.34zM43.15 91.44c-.27.95-1.25 1.5-2.2 1.23h-.01A62.835 62.835 0 0 1 .66 57.4c-.4-.9.01-1.95.92-2.35.9-.39 1.95.01 2.35.91a59.302 59.302 0 0 0 38 33.28c.94.27 1.49 1.26 1.22 2.2z"
                    ></path>
                  </g>
                </svg>
              </svg>
              <defs>
                <filter id="colors2477403709">
                  <feColorMatrix
                    type="matrix"
                    values="0 0 0 0 0.23828125  0 0 0 0 0.3359375  0 0 0 0 0.6953125  0 0 0 1 0"
                    class="icon-fecolormatrix"
                  ></feColorMatrix>
                </filter>
                <filter id="colorsf1496635848">
                  <feColorMatrix
                    type="matrix"
                    values="0 0 0 0 0.99609375  0 0 0 0 0.99609375  0 0 0 0 0.99609375  0 0 0 1 0"
                    class="icon-fecolormatrix"
                  ></feColorMatrix>
                </filter>
                <filter id="colorsb861864160">
                  <feColorMatrix
                    type="matrix"
                    values="0 0 0 0 0  0 0 0 0 0  0 0 0 0 0  0 0 0 1 0"
                    class="icon-fecolormatrix"
                  ></feColorMatrix>
                </filter>
              </defs>
            </g>
          </g>
        </g>
      </g>
      <g transform="translate(142, 0)" fill="#FFFFFF">
        <g
          data-gra="path-name"
          fill="#FFFFFF"
          transform="scale(0.9199999999999988)"
        >
          <path
            d="M26.25-12.99Q26.25-11.64 26.07-10.56L26.07-10.56L7.87-10.56Q8.09-7.87 9.75-6.34Q11.42-4.81 13.84-4.81L13.84-4.81Q17.35-4.81 18.83-7.82L18.83-7.82L25.62-7.82Q24.54-4.22 21.48-1.91Q18.43 0.40 13.98 0.40L13.98 0.40Q10.38 0.40 7.53-1.19Q4.67-2.79 3.08-5.71Q1.48-8.63 1.48-12.45L1.48-12.45Q1.48-16.31 3.06-19.24Q4.63-22.16 7.46-23.73Q10.29-25.30 13.98-25.30L13.98-25.30Q17.53-25.30 20.34-23.78Q23.15-22.25 24.70-19.44Q26.25-16.63 26.25-12.99L26.25-12.99ZM7.91-14.79L19.73-14.79Q19.69-17.21 17.98-18.67Q16.27-20.13 13.80-20.13L13.80-20.13Q11.46-20.13 9.87-18.72Q8.27-17.30 7.91-14.79L7.91-14.79Z"
            transform="translate(-1.4831460674157306, 35.235955056179776)"
            fill="#FFFFFF"
          ></path>
        </g>
      </g>
      <g transform="translate(168, 0)" fill="#FFFFFF">
        <g
          data-gra="path-name"
          fill="#FFFFFF"
          transform="scale(0.9199999999999988)"
        >
          <path
            d="M9.39-21.03Q10.61-23.01 12.56-24.13Q14.52-25.26 17.03-25.26L17.03-25.26L17.03-18.65L15.37-18.65Q12.40-18.65 10.90-17.26Q9.39-15.87 9.39-12.40L9.39-12.40L9.39 0L3.10 0L3.10-24.90L9.39-24.90L9.39-21.03Z"
            transform="translate(-3.1011235955056184, 35.235955056179776)"
            fill="#FFFFFF"
          ></path>
        </g>
      </g>
    </g>
    <!---->
  </g>
  <defs v-gra="od"></defs>
</svg>